# xmcd
# 
# Track frame offsets:
#     150
#     16695
#     33352
#     50447
#     70592
#     91305
#     109027
#     125565
#     141517
#     167667
#     187515
#     239252
#     275937
#     293617
#     320150
#     341325
# 
# Disc length: 4746
# 
# Revision: 5
# Processed by: cddbd v1.5.2PL0 Copyright (c) Steve Scherf et al.
# Submitted via: BonkEnc v1.0.8
# 
DISCID=df128810
DTITLE=Stereolab - Cobra and Phases Group Play Voltage in the Milky Night
DYEAR=2000
DGENRE=ROCK
TTITLE0=Fuses
TTITLE1=People Do It All the Time
TTITLE2=The Free Design
TTITLE3=Blips, Drips, and Strips
TTITLE4=Italian Shoes Continuum
TTITLE5=Infinity Girl
TTITLE6=The Spiracles
TTITLE7=Op Hop Detonation
TTITLE8=Puncture in the Radax Permutation
TTITLE9=Velvet Water
TTITLE10=Blue Milk
TTITLE11=Caleidoscopic Gaze
TTITLE12=Strobo Acceleration
TTITLE13=The Emergency Kisses
TTITLE14=Come and Play in the Milky Night
TTITLE15=Galaxidion [*]
EXTD=
EXTT0=
EXTT1=
EXTT2=
EXTT3=
EXTT4=
EXTT5=
EXTT6=
EXTT7=
EXTT8=
EXTT9=
EXTT10=
EXTT11=
EXTT12=
EXTT13=
EXTT14=
EXTT15=
PLAYORDER=
